<svg width="385.1374267578125px" height="76.4px" xmlns="http://www.w3.org/2000/svg" viewBox="57.43128662109376 36.8 385.1374267578125 76.4" style="background: rgba(0, 0, 0, 0);" preserveAspectRatio="xMidYMid"><defs><linearGradient id="editing-gradient-gradient" x1="0" x2="1" y1="0.5" y2="0.5" gradientUnits="objectBoundingBox"><stop offset="0" stop-color="#f0f"></stop><stop offset="1" stop-color="#0ff"></stop></linearGradient></defs><g><g transform="translate(115.22499012947083, 87.60499954223633)"><path d="M22.51-18.54L22.51-15.76L22.51-15.76Q22.51-10.63 18.13-9.91L18.13-9.91L22.75 0L18.87 0L14.32-9.79L6.65-9.79L6.65 0L3.14 0L3.14-24.51L16.56-24.51L16.56-24.51Q22.51-24.51 22.51-18.54L22.51-18.54ZM6.65-21.00L6.65-13.30L16.37-13.30L16.37-13.30Q17.77-13.30 18.39-13.91L18.39-13.91L18.39-13.91Q19.00-14.53 19.00-15.93L19.00-15.93L19.00-18.37L19.00-18.37Q19.00-19.77 18.39-20.39L18.39-20.39L18.39-20.39Q17.77-21.00 16.37-21.00L16.37-21.00L6.65-21.00ZM43.75-14.83L43.75-3.37L43.75-3.37Q43.75-2.67 43.49-2.05L43.49-2.05L43.49-2.05Q43.22-1.44 42.77-0.98L42.77-0.98L42.77-0.98Q42.31-0.53 41.71-0.26L41.71-0.26L41.71-0.26Q41.10 0 40.40 0L40.40 0L31.36 0L31.36 0Q30.68 0 30.06-0.26L30.06-0.26L30.06-0.26Q29.45-0.53 28.99-0.98L28.99-0.98L28.99-0.98Q28.54-1.44 28.28-2.05L28.28-2.05L28.28-2.05Q28.01-2.67 28.01-3.37L28.01-3.37L28.01-14.83L28.01-14.83Q28.01-15.53 28.28-16.15L28.28-16.15L28.28-16.15Q28.54-16.77 28.99-17.22L28.99-17.22L28.99-17.22Q29.45-17.67 30.06-17.94L30.06-17.94L30.06-17.94Q30.68-18.20 31.36-18.20L31.36-18.20L40.40-18.20L40.40-18.20Q41.10-18.20 41.71-17.94L41.71-17.94L41.71-17.94Q42.31-17.67 42.77-17.22L42.77-17.22L42.77-17.22Q43.22-16.77 43.49-16.15L43.49-16.15L43.49-16.15Q43.75-15.53 43.75-14.83L43.75-14.83ZM40.40-14.83L31.36-14.83L31.36-3.37L40.40-3.37L40.40-14.83ZM65.45-14.83L65.45 0L62.09 0L62.09-14.83L52.71-14.83L52.71 0L49.36 0L49.36-18.20L52.71-18.20L52.71-14.99L52.71-14.99Q52.74-15.65 53.01-16.24L53.01-16.24L53.01-16.24Q53.29-16.83 53.74-17.27L53.74-17.27L53.74-17.27Q54.19-17.71 54.79-17.95L54.79-17.95L54.79-17.95Q55.39-18.20 56.07-18.20L56.07-18.20L62.09-18.20L62.09-18.20Q62.79-18.20 63.40-17.94L63.40-17.94L63.40-17.94Q64.02-17.67 64.47-17.22L64.47-17.22L64.47-17.22Q64.92-16.77 65.19-16.15L65.19-16.15L65.19-16.15Q65.45-15.53 65.45-14.83L65.45-14.83ZM71.06-3.37L71.06-7.95L71.06-7.95Q71.06-8.65 71.32-9.25L71.32-9.25L71.32-9.25Q71.59-9.86 72.04-10.32L72.04-10.32L72.04-10.32Q72.50-10.78 73.11-11.05L73.11-11.05L73.11-11.05Q73.73-11.31 74.41-11.31L74.41-11.31L83.09-11.31L83.09-14.83L72.10-14.83L72.10-18.20L83.09-18.20L83.09-18.20Q83.79-18.20 84.41-17.94L84.41-17.94L84.41-17.94Q85.02-17.67 85.47-17.22L85.47-17.22L85.47-17.22Q85.93-16.77 86.19-16.15L86.19-16.15L86.19-16.15Q86.46-15.53 86.46-14.83L86.46-14.83L86.46 0L83.09 0L83.09-3.08L83.09-3.08Q83.04-2.44 82.75-1.88L82.75-1.88L82.75-1.88Q82.46-1.32 82.01-0.90L82.01-0.90L82.01-0.90Q81.55-0.48 80.97-0.24L80.97-0.24L80.97-0.24Q80.39 0 79.74 0L79.74 0L74.41 0L74.41 0Q73.73 0 73.11-0.26L73.11-0.26L73.11-0.26Q72.50-0.53 72.04-0.98L72.04-0.98L72.04-0.98Q71.59-1.44 71.32-2.05L71.32-2.05L71.32-2.05Q71.06-2.67 71.06-3.37L71.06-3.37ZM74.41-7.95L74.41-3.37L83.09-3.37L83.09-7.95L74.41-7.95ZM92.06-25.21L95.41-25.21L95.41 0L92.06 0L92.06-25.21ZM111.85-3.50L111.85-21.00L111.85-21.00Q111.85-21.72 112.13-22.36L112.13-22.36L112.13-22.36Q112.40-23.00 112.88-23.47L112.88-23.47L112.88-23.47Q113.36-23.94 114.00-24.22L114.00-24.22L114.00-24.22Q114.64-24.51 115.36-24.51L115.36-24.51L128.65-24.51L128.65-24.51Q129.37-24.51 130.01-24.22L130.01-24.22L130.01-24.22Q130.65-23.94 131.13-23.47L131.13-23.47L131.13-23.47Q131.61-23.00 131.88-22.36L131.88-22.36L131.88-22.36Q132.16-21.72 132.16-21.00L132.16-21.00L132.16-17.84L128.65-17.84L128.65-21.00L115.36-21.00L115.36-3.50L128.65-3.50L128.65-9.45L122.00-9.45L122.00-12.95L132.16-12.95L132.16-3.50L132.16-3.50Q132.16-2.79 131.88-2.14L131.88-2.14L131.88-2.14Q131.61-1.50 131.13-1.03L131.13-1.03L131.13-1.03Q130.65-0.55 130.01-0.27L130.01-0.27L130.01-0.27Q129.37 0 128.65 0L128.65 0L115.36 0L115.36 0Q114.64 0 114.00-0.27L114.00-0.27L114.00-0.27Q113.36-0.55 112.88-1.03L112.88-1.03L112.88-1.03Q112.40-1.50 112.13-2.14L112.13-2.14L112.13-2.14Q111.85-2.79 111.85-3.50L111.85-3.50ZM153.84-14.83L153.84-3.37L153.84-3.37Q153.84-2.67 153.58-2.05L153.58-2.05L153.58-2.05Q153.31-1.44 152.86-0.98L152.86-0.98L152.86-0.98Q152.41-0.53 151.80-0.26L151.80-0.26L151.80-0.26Q151.19 0 150.49 0L150.49 0L141.45 0L141.45 0Q140.77 0 140.15-0.26L140.15-0.26L140.15-0.26Q139.54-0.53 139.09-0.98L139.09-0.98L139.09-0.98Q138.63-1.44 138.37-2.05L138.37-2.05L138.37-2.05Q138.10-2.67 138.10-3.37L138.10-3.37L138.10-14.83L138.10-14.83Q138.10-15.53 138.37-16.15L138.37-16.15L138.37-16.15Q138.63-16.77 139.09-17.22L139.09-17.22L139.09-17.22Q139.54-17.67 140.15-17.94L140.15-17.94L140.15-17.94Q140.77-18.20 141.45-18.20L141.45-18.20L150.49-18.20L150.49-18.20Q151.19-18.20 151.80-17.94L151.80-17.94L151.80-17.94Q152.41-17.67 152.86-17.22L152.86-17.22L152.86-17.22Q153.31-16.77 153.58-16.15L153.58-16.15L153.58-16.15Q153.84-15.53 153.84-14.83L153.84-14.83ZM150.49-14.83L141.45-14.83L141.45-3.37L150.49-3.37L150.49-14.83ZM175.55-14.83L175.55 0L172.18 0L172.18-14.83L162.80-14.83L162.80 0L159.45 0L159.45-18.20L162.80-18.20L162.80-14.99L162.80-14.99Q162.83-15.65 163.11-16.24L163.11-16.24L163.11-16.24Q163.38-16.83 163.83-17.27L163.83-17.27L163.83-17.27Q164.28-17.71 164.88-17.95L164.88-17.95L164.88-17.95Q165.48-18.20 166.16-18.20L166.16-18.20L172.18-18.20L172.18-18.20Q172.88-18.20 173.50-17.94L173.50-17.94L173.50-17.94Q174.11-17.67 174.56-17.22L174.56-17.22L174.56-17.22Q175.02-16.77 175.28-16.15L175.28-16.15L175.28-16.15Q175.55-15.53 175.55-14.83L175.55-14.83ZM180.79-14.83L180.79-18.20L195.85-18.20L195.85-17.29L186.16-3.37L195.85-3.37L195.85 0L180.45 0L180.45-0.91L190.14-14.83L180.79-14.83ZM200.75-3.37L200.75-7.95L200.75-7.95Q200.75-8.65 201.02-9.25L201.02-9.25L201.02-9.25Q201.28-9.86 201.74-10.32L201.74-10.32L201.74-10.32Q202.19-10.78 202.81-11.05L202.81-11.05L202.81-11.05Q203.42-11.31 204.10-11.31L204.10-11.31L212.79-11.31L212.79-14.83L201.80-14.83L201.80-18.20L212.79-18.20L212.79-18.20Q213.49-18.20 214.10-17.94L214.10-17.94L214.10-17.94Q214.72-17.67 215.17-17.22L215.17-17.22L215.17-17.22Q215.62-16.77 215.89-16.15L215.89-16.15L215.89-16.15Q216.15-15.53 216.15-14.83L216.15-14.83L216.15 0L212.79 0L212.79-3.08L212.79-3.08Q212.73-2.44 212.44-1.88L212.44-1.88L212.44-1.88Q212.15-1.32 211.70-0.90L211.70-0.90L211.70-0.90Q211.25-0.48 210.67-0.24L210.67-0.24L210.67-0.24Q210.09 0 209.44 0L209.44 0L204.10 0L204.10 0Q203.42 0 202.81-0.26L202.81-0.26L202.81-0.26Q202.19-0.53 201.74-0.98L201.74-0.98L201.74-0.98Q201.28-1.44 201.02-2.05L201.02-2.05L201.02-2.05Q200.75-2.67 200.75-3.37L200.75-3.37ZM204.10-7.95L204.10-3.37L212.79-3.37L212.79-7.95L204.10-7.95ZM221.76-25.21L225.11-25.21L225.11 0L221.76 0L221.76-25.21ZM246.11-14.83L246.11-7.38L234.06-7.38L234.06-3.37L246.11-3.37L246.11 0L234.06 0L234.06 0Q233.38 0 232.76-0.26L232.76-0.26L232.76-0.26Q232.15-0.53 231.70-0.98L231.70-0.98L231.70-0.98Q231.24-1.44 230.98-2.05L230.98-2.05L230.98-2.05Q230.71-2.67 230.71-3.37L230.71-3.37L230.71-14.83L230.71-14.83Q230.71-15.53 230.98-16.15L230.98-16.15L230.98-16.15Q231.24-16.77 231.70-17.22L231.70-17.22L231.70-17.22Q232.15-17.67 232.76-17.94L232.76-17.94L232.76-17.94Q233.38-18.20 234.06-18.20L234.06-18.20L242.74-18.20L242.74-18.20Q243.44-18.20 244.06-17.94L244.06-17.94L244.06-17.94Q244.68-17.67 245.13-17.22L245.13-17.22L245.13-17.22Q245.58-16.77 245.85-16.15L245.85-16.15L245.85-16.15Q246.11-15.53 246.11-14.83L246.11-14.83ZM242.74-14.83L234.06-14.83L234.06-10.75L242.74-10.75L242.74-14.83ZM251.36-14.83L251.36-18.20L266.41-18.20L266.41-17.29L256.72-3.37L266.41-3.37L266.41 0L251.02 0L251.02-0.91L260.71-14.83L251.36-14.83Z" fill="url(#editing-gradient-gradient)"></path></g></g><style>text {
  font-size: 64px;
  font-family: Arial Black;
  dominant-baseline: central;
  text-anchor: middle;
}</style></svg>